<svg xmlns="http://www.w3.org/2000/svg" xmlns:xlink="http://www.w3.org/1999/xlink" width="106" height="106" viewBox="0 0 106 106">
  <defs>
    <clipPath id="clip-path">
      <rect id="Rectángulo_7987" data-name="Rectángulo 7987" width="73.171" height="81.43" fill="none"/>
    </clipPath>
    <clipPath id="clip-path-3">
      <rect id="Rectángulo_7982" data-name="Rectángulo 7982" width="17.598" height="7.161" fill="none"/>
    </clipPath>
    <clipPath id="clip-path-4">
      <rect id="Rectángulo_7983" data-name="Rectángulo 7983" width="42.818" height="31.362" fill="none"/>
    </clipPath>
    <clipPath id="clip-path-5">
      <rect id="Rectángulo_7984" data-name="Rectángulo 7984" width="26.655" height="22.571" fill="none"/>
    </clipPath>
    <clipPath id="clip-path-6">
      <rect id="Rectángulo_7985" data-name="Rectángulo 7985" width="0.158" height="0.016" fill="none"/>
    </clipPath>
    <clipPath id="clip-alerta">
      <rect width="106" height="106"/>
    </clipPath>
  </defs>
  <g id="alerta" clip-path="url(#clip-alerta)">
    <g id="Grupo_14798" data-name="Grupo 14798" transform="translate(-125 -109.735)">
      <circle id="Elipse_563" data-name="Elipse 563" cx="53" cy="53" r="53" transform="translate(125 109.735)" fill="#ebebeb"/>
      <g id="Grupo_13588" data-name="Grupo 13588" transform="translate(133.014 120.755)">
        <path id="Unión_2" data-name="Unión 2" d="M42.5,72.524a9.371,9.371,0,0,1-17.576-6.415C10.752,60.9.381,57.008.423,56.891c.018-.048,1.791.549,4.859,1.625L0,56.591l7.785-4.835A19.447,19.447,0,0,0,15.8,41.9l6.438-17.661A26.259,26.259,0,0,1,44.067,7.117l-.3.019a5.663,5.663,0,0,1-1.3.057,4.89,4.89,0,0,1,1.152-.254,10.1,10.1,0,0,1,1.374-.169,16.663,16.663,0,0,1,1.834-.086,25.4,25.4,0,0,1,4.764.42l.243.048L53.7,2.024A3.078,3.078,0,0,1,57.648.187L58.51.5a3.077,3.077,0,0,1,1.837,3.944L58.542,9.4a29.916,29.916,0,0,1,3.787,2.228,25.31,25.31,0,0,1,3.626,3.115,17.014,17.014,0,0,1,1.219,1.376,9.939,9.939,0,0,1,.836,1.1,4.973,4.973,0,0,1,.621,1,8.341,8.341,0,0,1-1.054-1.191,26.243,26.243,0,0,1,4,25.192l-6.693,18.36A19.445,19.445,0,0,0,65,74.2l2.71,7.068-6.385-2.328c4.006,1.509,6.359,2.426,6.339,2.482,0,0,0,0-.009,0C67.294,81.43,56.719,77.68,42.5,72.524Z" transform="translate(1.479 2.492)" stroke="rgba(0,0,0,0)" stroke-miterlimit="10" stroke-width="1" opacity="0.26"/>
        <g id="Grupo_13587" data-name="Grupo 13587" transform="translate(0 0)">
          <g id="Grupo_13586" data-name="Grupo 13586" clip-path="url(#clip-path)">
            <g id="Grupo_13585" data-name="Grupo 13585" transform="translate(0 0)">
              <g id="Grupo_13584" data-name="Grupo 13584" clip-path="url(#clip-path)">
                <path id="Trazado_37243" data-name="Trazado 37243" d="M41.813,69.855A9.37,9.37,0,1,1,36.222,57.84a9.372,9.372,0,0,1,5.591,12.015" transform="translate(0.89 2.158)" fill="#facb32"/>
                <path id="Trazado_37244" data-name="Trazado 37244" d="M0,56.338,67.706,81.019,65,73.952a19.445,19.445,0,0,1-.113-13.623l6.693-18.36A26.259,26.259,0,1,0,22.233,23.982L15.8,41.643A19.451,19.451,0,0,1,7.785,51.5Z" transform="translate(0 0.253)" fill="#facb32"/>
                <path id="Trazado_37245" data-name="Trazado 37245" d="M51.532,14.617l-.862-.314a3.076,3.076,0,0,1-1.837-3.943l3.038-8.336A3.077,3.077,0,0,1,55.815.187L56.678.5a3.077,3.077,0,0,1,1.837,3.944L55.476,12.78a3.077,3.077,0,0,1-3.944,1.837" transform="translate(1.832 0)" fill="#facb32"/>
                <path id="Trazado_37246" data-name="Trazado 37246" d="M67.645,79.362c-.051.14-15.145-5.239-33.71-12.013S.357,54.966.408,54.826s15.143,5.238,33.713,12.015S67.7,79.222,67.645,79.362" transform="translate(0.015 2.065)" fill="#263238"/>
                <g id="Grupo_13574" data-name="Grupo 13574" transform="translate(25.006 65.862)" opacity="0.3">
                  <g id="Grupo_13573" data-name="Grupo 13573">
                    <g id="Grupo_13572" data-name="Grupo 13572" clip-path="url(#clip-path-3)">
                      <path id="Trazado_37247" data-name="Trazado 37247" d="M24.1,63.471a15.646,15.646,0,0,0,7.409,6.148,15.024,15.024,0,0,0,10.189.274Z" transform="translate(-24.098 -63.471)"/>
                    </g>
                  </g>
                </g>
                <g id="Grupo_13577" data-name="Grupo 13577" transform="translate(27.979 33.596)" opacity="0.2">
                  <g id="Grupo_13576" data-name="Grupo 13576">
                    <g id="Grupo_13575" data-name="Grupo 13575" clip-path="url(#clip-path-4)">
                      <path id="Trazado_37248" data-name="Trazado 37248" d="M69.4,36.449a5.3,5.3,0,0,0,.339-2.454,1.833,1.833,0,0,0-1.655-1.6,1.969,1.969,0,0,0-2.142,1.268c-1.065,2.9-3.437,9.3-4.988,13.054C59.674,49.813,58,53,55.1,54.669a11.178,11.178,0,0,1-7.535.976,41.732,41.732,0,0,1-7.364-2.392,39.892,39.892,0,0,0-9.438-2.584,4.844,4.844,0,0,0-2.582.212,1.909,1.909,0,0,0-1.169,2.1c.221.77,1.022,1.2,1.747,1.537,7.467,3.5,15.049,6.891,23.074,8.784a8.305,8.305,0,0,0,5.054.053c1.8-.747,2.875-2.561,3.768-4.288A134.864,134.864,0,0,0,69.4,36.449" transform="translate(-26.964 -32.376)"/>
                    </g>
                  </g>
                </g>
                <g id="Grupo_13580" data-name="Grupo 13580" transform="translate(24.623 9.981)" opacity="0.2">
                  <g id="Grupo_13579" data-name="Grupo 13579">
                    <g id="Grupo_13578" data-name="Grupo 13578" clip-path="url(#clip-path-5)">
                      <path id="Trazado_37249" data-name="Trazado 37249" d="M50.381,13.528c-.068-1.682-1.119-3.516-4.223-3.809a19.513,19.513,0,0,0-13.4,3.683,21.732,21.732,0,0,0-8.627,12.007c-.471,1.686-.7,3.617.258,5.081,1.452,2.22,4.942,2.116,7.085.553s3.319-4.082,4.585-6.413,2.888-4.719,5.392-5.6c2.012-.7,4.348-.327,6.217-1.352a4.932,4.932,0,0,0,2.708-4.154" transform="translate(-23.729 -9.618)" fill="#fff"/>
                    </g>
                  </g>
                </g>
                <g id="Grupo_13583" data-name="Grupo 13583" transform="translate(46.989 10.071)" opacity="0.2">
                  <g id="Grupo_13582" data-name="Grupo 13582">
                    <g id="Grupo_13581" data-name="Grupo 13581" clip-path="url(#clip-path-6)">
                      <path id="Trazado_37250" data-name="Trazado 37250" d="M45.284,9.7c.023,0,.039.007.062.01s.063,0,.1.005Z" transform="translate(-45.284 -9.705)" fill="#fff"/>
                    </g>
                  </g>
                </g>
                <path id="Trazado_37251" data-name="Trazado 37251" d="M67.089,17.979c-.089.065-1.025-1.334-2.946-3.212A27.877,27.877,0,0,0,60.5,11.79a31.354,31.354,0,0,0-5.049-2.753,31.4,31.4,0,0,0-5.5-1.687,28,28,0,0,0-4.674-.527c-2.685-.066-4.341.237-4.356.128A4.859,4.859,0,0,1,42.077,6.7a10.175,10.175,0,0,1,1.374-.169,16.807,16.807,0,0,1,1.835-.086,25.392,25.392,0,0,1,4.764.42,29.439,29.439,0,0,1,5.615,1.678,29.509,29.509,0,0,1,5.123,2.842A25.288,25.288,0,0,1,64.414,14.5a16.874,16.874,0,0,1,1.218,1.375,10.029,10.029,0,0,1,.836,1.1,4.928,4.928,0,0,1,.621,1" transform="translate(1.542 0.243)" fill="#263238"/>
                <path id="Trazado_37252" data-name="Trazado 37252" d="M18.268,35.5a7.168,7.168,0,0,1,.358-1.379c.265-.877.665-2.141,1.2-3.689a51.934,51.934,0,0,1,5.457-11.593,25.639,25.639,0,0,1,9.354-8.7,17.161,17.161,0,0,1,3.639-1.4,5.738,5.738,0,0,1,1.406-.249,29.182,29.182,0,0,0-4.866,1.987,26.657,26.657,0,0,0-9.083,8.659,58.035,58.035,0,0,0-5.548,11.424c-.546,1.455-1,2.671-1.361,3.626a7.233,7.233,0,0,1-.557,1.312" transform="translate(0.688 0.32)" fill="#fff"/>
                <path id="Trazado_37253" data-name="Trazado 37253" d="M9.564,49.873c-.1-.136,1.86-1.489,3.7-3.718,1.861-2.213,2.838-4.381,2.988-4.312A11.24,11.24,0,0,1,13.678,46.5a11.267,11.267,0,0,1-4.114,3.372" transform="translate(0.36 1.576)" fill="#fff"/>
                <path id="Trazado_37254" data-name="Trazado 37254" d="M31.4,73.721a2.888,2.888,0,0,1-1.553-.2,7.18,7.18,0,0,1-4.869-5.454,2.875,2.875,0,0,1-.026-1.567,10.866,10.866,0,0,1,.4,1.476,7.97,7.97,0,0,0,4.63,5.186,10.514,10.514,0,0,1,1.422.561" transform="translate(0.937 2.505)" fill="#fff"/>
                <path id="Trazado_37255" data-name="Trazado 37255" d="M54.82.8c.058.147-1.079.615-1.929,1.783a14.619,14.619,0,0,0-1.159,2.358,3.031,3.031,0,0,1,.725-2.681A3.032,3.032,0,0,1,54.82.8" transform="translate(1.945 0.029)" fill="#fff"/>
              </g>
            </g>
          </g>
        </g>
      </g>
    </g>
  </g>
</svg>
