<svg xmlns="http://www.w3.org/2000/svg" xmlns:xlink="http://www.w3.org/1999/xlink" width="172" height="32" viewBox="0 0 172 32">
  <defs>
    <radialGradient id="radial-gradient" cx="-333.359" cy="-391.419" r="24.645" gradientTransform="translate(-130.528 -152.264) scale(0.659 0.659)" gradientUnits="userSpaceOnUse">
      <stop offset="0" stop-color="#27562d"/>
      <stop offset="1" stop-color="#1f321f"/>
    </radialGradient>
    <radialGradient id="radial-gradient-2" cx="-703.241" cy="-1160.798" r="36.156" gradientTransform="translate(-498.142 -821.475) scale(0.337 0.337)" gradientUnits="userSpaceOnUse">
      <stop offset="0" stop-color="#c6d246"/>
      <stop offset="1" stop-color="#7faa2f"/>
    </radialGradient>
    <clipPath id="clip-logo_argenprop">
      <rect width="172" height="32"/>
    </clipPath>
  </defs>
  <g id="logo_argenprop" clip-path="url(#clip-logo_argenprop)">
    <g id="Grupo_11410" data-name="Grupo 11410" transform="translate(-48.387 -53.362)">
      <g id="Grupo_11161" data-name="Grupo 11161" transform="translate(91.863 61.557)">
        <path id="Trazado_31037" data-name="Trazado 31037" d="M107.818,75.754v3.5h-3.185V70.336a6.372,6.372,0,1,1,12.744,0v8.918H114.19v-3.5Zm6.372-3.183V70.336a3.186,3.186,0,1,0-6.372,0v2.235Z" transform="translate(-104.633 -63.964)" fill="#2e3641"/>
        <path id="Trazado_31038" data-name="Trazado 31038" d="M133.228,75.143l4.2,4.206-4.478.023-3.508-3.5-3.095-.022v3.5h-3.191V64.377h7.331a5.713,5.713,0,0,1,4.92,8.663A5.8,5.8,0,0,1,133.228,75.143Zm-2.74-2.478a2.467,2.467,0,0,0,1.8-.759,2.424,2.424,0,0,0,.752-1.8,2.556,2.556,0,0,0-2.551-2.544h-4.14v5.1Z" transform="translate(-108.839 -64.058)" fill="#2e3641"/>
        <path id="Trazado_31039" data-name="Trazado 31039" d="M161.483,79.349V64.377h9.555v3.188h-6.368v2.7h6.368v3.184h-6.368v2.7h6.368v3.191Z" transform="translate(-117.54 -64.058)" fill="#2e3641"/>
        <path id="Trazado_31040" data-name="Trazado 31040" d="M186.015,73.36V64.377h3.178V79.349h-2.548l-7-8.978v8.978h-3.185V64.377H179Z" transform="translate(-120.939 -64.058)" fill="#2e3641"/>
        <g id="Grupo_11153" data-name="Grupo 11153" transform="translate(70.621 0.364)">
          <path id="Trazado_31041" data-name="Trazado 31041" d="M203.311,64.435a5.72,5.72,0,0,1,0,11.439h-4.135v3.5H196V64.435Zm0,8.255a2.541,2.541,0,0,0,0-5.082h-4.135V72.69Z" transform="translate(-195.997 -64.435)" fill="#2e3641"/>
        </g>
        <g id="Grupo_11154" data-name="Grupo 11154" transform="translate(85.038 0.364)">
          <path id="Trazado_31042" data-name="Trazado 31042" d="M224.688,75.172l4.2,4.2-4.469.015-3.5-3.487-3.094-.024v3.5h-3.178V64.435h7.307a5.712,5.712,0,0,1,4.914,8.643A5.78,5.78,0,0,1,224.688,75.172Zm-2.733-2.481a2.541,2.541,0,0,0,0-5.082h-4.129V72.69Z" transform="translate(-214.648 -64.435)" fill="#2e3641"/>
        </g>
        <g id="Grupo_11155" data-name="Grupo 11155" transform="translate(99.514 0.044)">
          <path id="Trazado_31043" data-name="Trazado 31043" d="M240.491,64.021a6.582,6.582,0,0,1,5.036,2.276,8.321,8.321,0,0,1,0,11.019,6.726,6.726,0,0,1-10.077,0,8.356,8.356,0,0,1,0-11.019A6.6,6.6,0,0,1,240.491,64.021Zm0,2.988a3.29,3.29,0,0,0-2.672,1.418,5.3,5.3,0,0,0-1.107,3.375,5.376,5.376,0,0,0,1.08,3.421,3.287,3.287,0,0,0,2.7,1.382,3.326,3.326,0,0,0,2.671-1.411,5.321,5.321,0,0,0,1.108-3.393A5.383,5.383,0,0,0,243.2,68.4,3.3,3.3,0,0,0,240.491,67.009Z" transform="translate(-233.376 -64.021)" fill="#2e3641"/>
        </g>
        <g id="Grupo_11156" data-name="Grupo 11156" transform="translate(114.826 0.364)">
          <path id="Trazado_31044" data-name="Trazado 31044" d="M260.5,64.435a5.72,5.72,0,0,1,0,11.439h-4.128v3.5h-3.185V64.435Zm0,8.255a2.541,2.541,0,0,0,0-5.082h-4.128V72.69Z" transform="translate(-253.186 -64.435)" fill="#2e3641"/>
        </g>
        <path id="Trazado_31047" data-name="Trazado 31047" d="M152.229,74.137h-3.073V71.569h6.076v5.364c0,.384-1.568,1.539-2.616,2.031a7.309,7.309,0,0,1-3.251.6,7.388,7.388,0,0,1-5.467-2.29,7.778,7.778,0,0,1,0-11.013,7.405,7.405,0,0,1,5.467-2.3,7.692,7.692,0,0,1,3.317.725,7.226,7.226,0,0,1,2.55,2.021l-1.544,2.033a4.885,4.885,0,0,0-1.709-1.136,5.091,5.091,0,0,0-2.066-.455,4.974,4.974,0,0,0-3.5,1.346,4.428,4.428,0,0,0-.012,6.559,5.089,5.089,0,0,0,5.4.931C152.655,75.656,152.229,74.137,152.229,74.137Z" transform="translate(-113.029 -63.964)" fill="#2e3641"/>
      </g>
      <g id="Grupo_11168" data-name="Grupo 11168" transform="translate(48.387 53.362)">
        <g id="Grupo_11162" data-name="Grupo 11162">
          <path id="Trazado_31050" data-name="Trazado 31050" d="M76.236,53.362H57.413A9.043,9.043,0,0,0,48.387,62.4v13.92a9.044,9.044,0,0,0,9.026,9.041H76.236a9.045,9.045,0,0,0,9.029-9.041V62.4a9.044,9.044,0,0,0-9.029-9.039Z" transform="translate(-48.387 -53.362)" fill="#fff"/>
        </g>
        <path id="Trazado_31051" data-name="Trazado 31051" d="M69.224,62.027a2.792,2.792,0,0,1,1.977.822l5.974,5.974a2.8,2.8,0,0,1,.819,1.976v7.579a1.59,1.59,0,1,1-3.179,0V74.522H63.63v3.835a1.587,1.587,0,1,1-3.175,0V70.9c0-.015,0-.046,0-.1a2.772,2.772,0,0,1,.82-1.976l5.975-5.974a2.8,2.8,0,0,1,1.976-.822M63.63,71.345H74.815v-.386l-5.591-5.589L63.63,70.958v.386m5.594-10.774a4.272,4.272,0,0,0-3.009,1.252l-5.968,5.967A4.23,4.23,0,0,0,59,70.806c0,.049,0,.088,0,.117v7.434a3.044,3.044,0,1,0,6.087,0V75.979h8.273v2.4a3.045,3.045,0,1,0,6.09,0V70.8A4.275,4.275,0,0,0,78.2,67.793L72.231,61.82a4.264,4.264,0,0,0-3.007-1.249ZM66.76,69.888l2.463-2.461,2.463,2.461Z" transform="translate(-50.796 -54.999)" fill="#fff"/>
        <g id="Grupo_11167" data-name="Grupo 11167" transform="translate(1.661 1.661)">
          <g id="Grupo_11164" data-name="Grupo 11164">
            <path id="Trazado_31052" data-name="Trazado 31052" d="M77.6,69.252l-5.974-5.974a2.787,2.787,0,0,0-3.954,0L61.7,69.252a2.772,2.772,0,0,0-.82,1.976c0,.055,0,.085,0,.1v7.458a1.587,1.587,0,1,0,3.175,0V74.95H75.242v3.856a1.59,1.59,0,1,0,3.179,0V71.227A2.8,2.8,0,0,0,77.6,69.252ZM64.058,71.772v-.386L69.652,65.8l5.591,5.589v.386Z" transform="translate(-52.884 -57.088)" fill="#233b23"/>
            <g id="Grupo_11163" data-name="Grupo 11163">
              <path id="Trazado_31053" data-name="Trazado 31053" d="M76.619,55.511H58.006a7.478,7.478,0,0,0-7.47,7.468v13.74a7.444,7.444,0,0,0,.056.9l6.487-6.487V69.775c0-.029,0-.069,0-.117a4.23,4.23,0,0,1,1.25-3.015l5.968-5.967a4.243,4.243,0,0,1,6.016,0l5.973,5.973a4.275,4.275,0,0,1,1.246,3.007v1.48l6.5,6.5a7.456,7.456,0,0,0,.059-.916V62.979A7.48,7.48,0,0,0,76.619,55.511Z" transform="translate(-50.536 -55.511)" fill="url(#radial-gradient)"/>
            </g>
          </g>
          <g id="Grupo_11166" data-name="Grupo 11166" transform="translate(0.434 10.769)">
            <g id="Grupo_11165" data-name="Grupo 11165" transform="translate(0 6.908)">
              <path id="Trazado_31054" data-name="Trazado 31054" d="M77.656,78.382v4.04a3.045,3.045,0,1,1-6.09,0v-2.4H63.293V82.4a3.044,3.044,0,1,1-6.087,0V78.379L51.1,84.488a7.486,7.486,0,0,0,7.019,4.9H76.741a7.49,7.49,0,0,0,7.022-4.9Z" transform="translate(-51.097 -78.379)" fill="url(#radial-gradient-2)"/>
            </g>
            <path id="Trazado_31055" data-name="Trazado 31055" d="M69.041,71.9h0L71.5,69.442,73.967,71.9H69.041" transform="translate(-55.171 -69.442)" fill="#81ab2e"/>
          </g>
        </g>
        <path id="Trazado_31056" data-name="Trazado 31056" d="M88.077,63.456A3.578,3.578,0,0,0,84.5,59.88h0a.422.422,0,0,1-.42-.421h0a.422.422,0,0,1,.42-.424h0a4.422,4.422,0,0,1,4.418,4.421h0a.419.419,0,0,1-.423.42h0a.418.418,0,0,1-.421-.42Z" transform="translate(-56.491 -54.65)" fill="#fff"/>
      </g>
    </g>
  </g>
</svg>
