<svg id="Capa_1" data-name="Capa 1" xmlns="http://www.w3.org/2000/svg" viewBox="0 0 20 20"><defs><style>.cls-1{fill:none;}</style></defs><path d="M16.52,3H13V2.5A1.5,1.5,0,0,0,11.52,1h-3A1.5,1.5,0,0,0,7,2.5V3H3.52A1.5,1.5,0,0,0,2,4.5v1A1.48,1.48,0,0,0,3,6.91V17.5A1.5,1.5,0,0,0,4.52,19h11A1.5,1.5,0,0,0,17,17.5V6.91A1.5,1.5,0,0,0,18,5.5v-1A1.5,1.5,0,0,0,16.52,3ZM8,2.5a.5.5,0,0,1,.5-.5h3a.5.5,0,0,1,.5.5V3H8ZM15.52,18h-11a.5.5,0,0,1-.5-.5V7H16V17.5A.5.5,0,0,1,15.52,18ZM17,5.5a.5.5,0,0,1-.5.5h-13A.5.5,0,0,1,3,5.5v-1a.5.5,0,0,1,.5-.5h13a.5.5,0,0,1,.5.5Z"/><path d="M13.52,8a.5.5,0,0,0-.5.5v8a.5.5,0,0,0,.5.5.5.5,0,0,0,.5-.5v-8A.5.5,0,0,0,13.52,8Z"/><path d="M10,8a.5.5,0,0,0-.5.5v8a.5.5,0,0,0,.5.5.5.5,0,0,0,.5-.5v-8A.5.5,0,0,0,10,8Z"/><path d="M6.52,8a.5.5,0,0,0-.5.5v8a.5.5,0,0,0,.5.5.5.5,0,0,0,.5-.5v-8A.5.5,0,0,0,6.52,8Z"/><rect class="cls-1" x="0.02" width="20" height="20"/><rect class="cls-1" x="0.02" width="20" height="20"/></svg>