<?xml version="1.0" encoding="utf-8"?>
<!-- Generator: Adobe Illustrator 25.2.3, SVG Export Plug-In . SVG Version: 6.00 Build 0)  -->
<svg version="1.1" id="Capa_1" xmlns="http://www.w3.org/2000/svg" xmlns:xlink="http://www.w3.org/1999/xlink" x="0px" y="0px"
	 viewBox="0 0 20 20" style="enable-background:new 0 0 20 20;" xml:space="preserve">
<style type="text/css">
	.st0{fill:#DD352C;}
	.st1{fill:none;}
</style>
<path class="st0" d="M14,2.3C12.6,2.4,11.3,3,10.3,4l-0.2,0.1L10,4C9,3,7.7,2.4,6.3,2.3C3.7,2.1,1.5,4,1.3,6.5c0,0.3,0,0.5,0,0.8
	c0,2.4,2.1,4.4,2.3,4.6l5.7,5.6c0.2,0.2,0.6,0.4,0.9,0.4c0.3,0,0.6-0.1,0.9-0.4l5.7-5.6c1.3-1.2,2.1-2.9,2.3-4.7
	c0.2-2.5-1.7-4.8-4.3-5C14.5,2.3,14.2,2.3,14,2.3z M15.9,11.1l-5.6,5.5l-0.2,0.2L10,16.6l-5.7-5.5c-1.1-1-1.8-2.3-1.9-3.8
	C2.2,5.4,3.6,3.7,5.5,3.5c0.2,0,0.5,0,0.7,0c1.2,0.1,2.4,0.7,3.2,1.6c0.4,0.3,1,0.3,1.3,0c0.8-0.9,2-1.5,3.2-1.6
	c1.9-0.2,3.6,1.2,3.8,3.1c0,0.2,0,0.5,0,0.7C17.7,8.7,17,10.1,15.9,11.1L15.9,11.1z"/>
<rect class="st1" width="20" height="20"/>
</svg>
